# xmcd
#
# Track frame offsets: 
#        150
#        10690
#        26718
#        42705
#        51885
#        53299
#        66671
#        67624
#        73199
#        74278
#        94522
#        95158
#        104198
#        116559
#        117811
#
# Disc length: 1706 seconds
#
# Revision: 1
# Processed by: cddbd v1.5.2PL0 Copyright (c) Steve Scherf et al.
# Submitted via: ExactAudioCopyFreeDBPlugin 1.0
#
DISCID=d706a80f
DTITLE=Gil Scott-Heron - I'm New Here
DYEAR=2010
DGENRE=Post-Industrial Blues
TTITLE0=On Coming from a Broken Home (Pt 1)
TTITLE1=Me and the Devil
TTITLE2=I'm New Here
TTITLE3=Your Soul and Mine
TTITLE4=Parents (Interlude)
TTITLE5=I'll Take Care of You
TTITLE6=Being Blessed (Interlude)
TTITLE7=Where Did the Night Go
TTITLE8=I Was Guided (Interlude)
TTITLE9=New York is Killing Me
TTITLE10=Certain Things (Interlude)
TTITLE11=Running
TTITLE12=The Crutch
TTITLE13=I've Been Me (Interlude)
TTITLE14=On Coming from a Broken Home (Pt 1)
EXTD=
EXTT0=
EXTT1=
EXTT2=
EXTT3=
EXTT4=
EXTT5=
EXTT6=
EXTT7=
EXTT8=
EXTT9=
EXTT10=
EXTT11=
EXTT12=
EXTT13=
EXTT14=
PLAYORDER=
